<svg width="200" height="80" viewBox="0 0 200 80" fill="none" xmlns="http://www.w3.org/2000/svg">
<g clip-path="url(#clip0_27_55)">
<g clip-path="url(#clip1_27_55)">
<path d="M96.619 43.7402C94.5973 43.7402 92.9593 42.0652 92.9593 40C92.9593 37.9347 94.5982 36.2598 96.619 36.2598C98.6397 36.2598 100.278 37.9347 100.278 40C100.278 42.0652 98.6397 43.7402 96.619 43.7402ZM100.29 44.2139C100.29 44.5549 100.877 45.5184 101.597 45.5184H102.063C102.15 45.5177 102.234 45.4828 102.295 45.4213C102.357 45.3598 102.391 45.2766 102.392 45.1897V34.9552C102.383 34.7828 102.241 34.6445 102.065 34.6445H100.616C100.442 34.6445 100.299 34.7828 100.289 34.9552H100.287V35.787C99.4023 34.6976 98.0087 34.2457 96.6114 34.2457C93.433 34.2457 90.8571 36.8225 90.8571 40C90.8571 43.1775 93.4339 45.7543 96.6114 45.7543C98.0097 45.7543 99.5331 45.2115 100.287 44.2129L100.29 44.2139ZM105.839 42.7483C106.802 43.4152 107.854 43.7402 108.865 43.7402C109.827 43.7402 110.823 43.2409 110.823 42.3722C110.823 41.2126 108.644 41.0317 107.291 40.5684C105.938 40.1051 104.754 39.1474 104.754 37.5975C104.754 35.2252 106.869 34.2438 108.841 34.2438C110.091 34.2438 111.38 34.6559 112.217 35.248C112.505 35.4659 112.331 35.7169 112.331 35.7169L111.532 36.8566C111.442 36.9845 111.248 37.0878 111.061 36.957C110.523 36.6018 109.924 36.2588 108.842 36.2588C107.502 36.2588 106.913 36.8149 106.913 37.5037C106.913 38.3298 107.856 38.5903 108.959 38.8717C110.883 39.3899 112.982 40.0132 112.982 42.3722C112.982 44.4621 111.027 45.7543 108.866 45.7543C107.227 45.7543 105.834 45.2872 104.664 44.428C104.421 44.1845 104.59 43.9581 104.59 43.9581L105.386 42.8241C105.547 42.6119 105.752 42.6858 105.841 42.7483H105.839ZM123.806 44.2139C123.806 44.5549 124.393 45.5184 125.113 45.5184H125.579C125.666 45.5177 125.749 45.4828 125.811 45.4213C125.872 45.3598 125.907 45.2766 125.908 45.1897L125.906 34.9534C125.896 34.7809 125.754 34.6426 125.579 34.6426H124.136C123.962 34.6426 123.819 34.7809 123.809 34.9534H123.807V35.7851C122.924 34.6957 121.529 34.2438 120.132 34.2438C116.953 34.2438 114.377 36.8206 114.377 39.9981C114.377 43.1756 116.954 45.7524 120.132 45.7524C121.53 45.7524 123.053 45.2096 123.807 44.211L123.806 44.2139ZM120.135 43.7402C118.113 43.7402 116.475 42.0652 116.475 40C116.475 37.9347 118.114 36.2598 120.135 36.2598C122.155 36.2598 123.793 37.9347 123.793 40C123.793 42.0652 122.155 43.7402 120.135 43.7402ZM138.837 44.5663L138.837 39.261C138.837 36.2749 136.953 34.2608 133.948 34.2608C132.515 34.2608 131.341 35.0898 130.917 35.8022V35.7927L130.914 35.8022C130.913 35.0822 130.328 34.6616 129.606 34.6616H129.133C129.046 34.6623 128.962 34.6972 128.901 34.7587C128.84 34.8202 128.805 34.9033 128.804 34.9903L128.806 45.2276C128.815 45.4 128.957 45.5383 129.133 45.5383H130.575C130.597 45.5383 130.619 45.5355 130.64 45.5317C130.649 45.5298 130.659 45.526 130.668 45.5222L130.701 45.5127C130.714 45.507 130.725 45.5004 130.738 45.4938L130.757 45.4843C130.772 45.4748 130.786 45.4635 130.798 45.4521C130.819 45.4331 130.832 45.418 130.844 45.4019C130.88 45.3517 130.9 45.292 130.905 45.2276H130.907V39.1805C130.907 37.5766 132.207 36.2768 133.811 36.2768C135.415 36.2768 136.714 37.5766 136.714 39.1805L136.718 45.2276C136.728 45.4 136.87 45.5383 137.045 45.5383H138.488C138.511 45.5383 138.531 45.5355 138.552 45.5317C138.562 45.5298 138.568 45.526 138.577 45.5241L138.612 45.5127C138.623 45.508 138.635 45.5014 138.645 45.4938L138.666 45.4843C138.679 45.475 138.692 45.4649 138.704 45.454C138.728 45.4331 138.74 45.4189 138.751 45.4038C138.789 45.3517 138.811 45.292 138.815 45.2276L138.817 45.2266V44.5587L138.837 44.5663ZM150.094 44.2158C150.094 44.5568 150.681 45.5203 151.4 45.5203H151.866C151.953 45.5196 152.036 45.4847 152.097 45.4232C152.159 45.3617 152.194 45.2785 152.194 45.1916L152.193 34.9552C152.184 34.7828 152.042 34.6445 151.867 34.6445H150.424C150.249 34.6445 150.106 34.7828 150.097 34.9552L150.096 35.787C149.211 34.6976 147.817 34.2457 146.418 34.2457C143.241 34.2457 140.664 36.8225 140.664 40C140.664 43.1775 143.241 45.7543 146.418 45.7543C147.817 45.7543 149.34 45.2115 150.094 44.2129V44.2158ZM146.423 43.7421C144.401 43.7421 142.763 42.0671 142.763 40.0019C142.763 37.9366 144.402 36.2617 146.423 36.2617C148.444 36.2617 150.082 37.9366 150.082 40.0019C150.082 42.0671 148.443 43.7421 146.423 43.7421Z" fill="#6C6F93"/>
<path d="M77.5209 41.025C75.3464 41.026 73.2611 41.8903 71.7235 43.428C70.1858 44.9657 69.3215 47.0509 69.3205 49.2255C69.3215 51.4 70.1858 53.4853 71.7235 55.0229C73.2611 56.5606 75.3464 57.4249 77.5209 57.4259C79.6955 57.4249 81.7807 56.5606 83.3184 55.0229C84.8561 53.4853 85.7204 51.4 85.7214 49.2255C85.7204 47.0509 84.8561 44.9657 83.3184 43.428C81.7807 41.8903 79.6955 41.026 77.5209 41.025ZM56.2052 41.026C54.0306 41.027 51.9453 41.8913 50.4077 43.4289C48.87 44.9666 48.0057 47.0518 48.0047 49.2264C48.0057 51.401 48.87 53.4862 50.4077 55.0239C51.9453 56.5615 54.0306 57.4258 56.2052 57.4268C58.3797 57.4258 60.465 56.5615 62.0026 55.0239C63.5403 53.4862 64.4046 51.401 64.4056 49.2264C64.4046 47.0518 63.5403 44.9666 62.0026 43.4289C60.465 41.8913 58.3797 41.027 56.2052 41.026ZM75.0578 30.7755C75.057 32.95 74.193 35.0354 72.6555 36.5732C71.118 38.111 69.0329 38.9756 66.8583 38.9768C64.6836 38.9758 62.5982 38.1114 61.0605 36.5735C59.5228 35.0357 58.6586 32.9502 58.6579 30.7755C58.6589 28.6009 59.5232 26.5157 61.0608 24.978C62.5985 23.4403 64.6837 22.576 66.8583 22.575C69.0327 22.5763 71.1177 23.4407 72.6552 24.9783C74.1926 26.516 75.0568 28.601 75.0578 30.7755Z" fill="url(#paint0_radial_27_55)"/>
</g>
</g>
<defs>
<radialGradient id="paint0_radial_27_55" cx="0" cy="0" r="1" gradientUnits="userSpaceOnUse" gradientTransform="translate(66.8688 41.6213) scale(24.9852 23.0939)">
<stop stop-color="#FFB900"/>
<stop offset="0.6" stop-color="#F95D8F"/>
<stop offset="0.9991" stop-color="#F95353"/>
</radialGradient>
<clipPath id="clip0_27_55">
<rect width="200" height="80" fill="white"/>
</clipPath>
<clipPath id="clip1_27_55">
<rect width="104.211" height="36" fill="white" transform="translate(48 22)"/>
</clipPath>
</defs>
</svg>
