<svg width="14" height="14" viewBox="0 0 14 14" fill="none" xmlns="http://www.w3.org/2000/svg">
<path d="M7 1.75C6.3 1.75 5.6 2.1 5.25 2.74167C4.9007 2.65224 4.53426 2.65425 4.18597 2.74752C3.83768 2.84078 3.51926 3.02215 3.26139 3.27416C3.00352 3.52617 2.81488 3.84033 2.71364 4.18639C2.61239 4.53244 2.60196 4.89874 2.68333 5.25C2.1 5.6 1.69167 6.3 1.69167 7C1.69167 7.7 2.1 8.4 2.68333 8.75C2.50833 9.45 2.68333 10.2083 3.26667 10.7333C3.73333 11.2 4.49167 11.4333 5.19167 11.3167C5.54167 11.9 6.24167 12.25 6.94167 12.25C7.64167 12.25 8.34167 11.9 8.69167 11.2583C9.39167 11.4333 10.15 11.2583 10.675 10.675C11.1417 10.2083 11.375 9.50833 11.2583 8.75C11.8417 8.4 12.1917 7.7 12.1917 7C12.1917 6.3 11.8417 5.6 11.2 5.25C11.375 4.55 11.2 3.79167 10.6167 3.26667C10.3673 3.02046 10.0617 2.83868 9.72627 2.73705C9.39088 2.63541 9.03578 2.61698 8.69167 2.68333C8.34167 2.1 7.64167 1.75 6.94167 1.75H7Z" stroke="black" stroke-width="1.16667" stroke-linecap="round" stroke-linejoin="round"/>
<path d="M5.25 6.99999L6.41667 8.16666L8.75 5.83333" stroke="black" stroke-width="1.16667" stroke-linecap="round" stroke-linejoin="round"/>
</svg>
