<svg width="200" height="80" viewBox="0 0 200 80" fill="none" xmlns="http://www.w3.org/2000/svg">
<g clip-path="url(#clip0_27_87)">
<g clip-path="url(#clip1_27_87)">
<path fill-rule="evenodd" clip-rule="evenodd" d="M79 40V46.9879L78.9983 47.349C78.9737 49.8637 78.6857 50.8294 78.1652 51.8026C77.6205 52.8212 76.8212 53.6205 75.8026 54.1652L75.6667 54.2363C74.6908 54.7351 73.65 55 70.9879 55H64V40H79Z" fill="url(#paint0_linear_27_87)"/>
<path fill-rule="evenodd" clip-rule="evenodd" d="M75.8026 25.8348C76.8212 26.3795 77.6205 27.1788 78.1652 28.1974L78.2363 28.3333C78.7351 29.3092 79 30.35 79 33.0121V40H64V25H70.9879C73.7739 25 74.7841 25.2901 75.8026 25.8348Z" fill="url(#paint1_linear_27_87)"/>
<path fill-rule="evenodd" clip-rule="evenodd" d="M64 25V55H57.0121L56.651 54.9983C54.1363 54.9737 53.1706 54.6857 52.1974 54.1652C51.1788 53.6205 50.3795 52.8212 49.8348 51.8026L49.7637 51.6667C49.2649 50.6908 49 49.65 49 46.9879V33.0121C49 30.2261 49.2901 29.2159 49.8348 28.1974C50.3795 27.1788 51.1788 26.3795 52.1974 25.8348L52.3333 25.7637C53.3092 25.2649 54.35 25 57.0121 25H64Z" fill="url(#paint2_linear_27_87)"/>
<path fill-rule="evenodd" clip-rule="evenodd" d="M100.156 36.2944C99.8424 35.8688 99.4336 35.558 98.9296 35.362C98.4256 35.166 97.9328 35.068 97.4512 35.068C96.8352 35.068 96.2752 35.18 95.7712 35.404C95.2672 35.628 94.8332 35.936 94.4692 36.328C94.1052 36.72 93.8252 37.1792 93.6292 37.7056C93.4332 38.232 93.3352 38.8032 93.3352 39.4192C93.3352 40.0688 93.4304 40.6624 93.6208 41.2C93.8112 41.7376 94.0828 42.1996 94.4356 42.586C94.7884 42.9724 95.2112 43.272 95.704 43.4848C96.1968 43.6976 96.7512 43.804 97.3672 43.804C98.0056 43.804 98.5712 43.678 99.064 43.426C99.5568 43.174 99.9544 42.8408 100.257 42.4264L101.954 43.6192C101.427 44.28 100.783 44.7924 100.022 45.1564C99.26 45.5204 98.3696 45.7024 97.3504 45.7024C96.4208 45.7024 95.5668 45.5484 94.7884 45.2404C94.01 44.9324 93.3408 44.5012 92.7808 43.9468C92.2208 43.3924 91.784 42.7316 91.4704 41.9644C91.1568 41.1972 91 40.3488 91 39.4192C91 38.4672 91.1652 37.6076 91.4956 36.8404C91.826 36.0732 92.2796 35.4208 92.8564 34.8832C93.4332 34.3456 94.1136 33.9312 94.8976 33.64C95.6816 33.3488 96.5328 33.2032 97.4512 33.2032C97.832 33.2032 98.2296 33.2396 98.644 33.3124C99.0584 33.3852 99.456 33.4972 99.8368 33.6484C100.218 33.7996 100.576 33.9872 100.912 34.2112C101.248 34.4352 101.534 34.704 101.769 35.0176L100.156 36.2944ZM103.197 32.6992H105.213V45.4H103.197V32.6992ZM112.744 40.5616C112.744 40.304 112.708 40.0576 112.635 39.8224C112.562 39.5872 112.447 39.38 112.29 39.2008C112.134 39.0216 111.935 38.8788 111.694 38.7724C111.453 38.666 111.17 38.6128 110.846 38.6128C110.241 38.6128 109.728 38.7948 109.308 39.1588C108.888 39.5228 108.656 39.9904 108.611 40.5616H112.744ZM114.76 41.4688V41.7376C114.76 41.8272 114.754 41.9168 114.743 42.0064H108.611C108.634 42.2976 108.709 42.5636 108.838 42.8044C108.967 43.0452 109.138 43.2524 109.35 43.426C109.563 43.5996 109.804 43.7368 110.073 43.8376C110.342 43.9384 110.622 43.9888 110.913 43.9888C111.417 43.9888 111.842 43.8964 112.19 43.7116C112.537 43.5268 112.822 43.272 113.046 42.9472L114.39 44.0224C113.595 45.0976 112.442 45.6352 110.93 45.6352C110.302 45.6352 109.726 45.5372 109.199 45.3412C108.673 45.1452 108.216 44.868 107.83 44.5096C107.444 44.1512 107.141 43.7116 106.923 43.1908C106.704 42.67 106.595 42.0792 106.595 41.4184C106.595 40.7688 106.704 40.178 106.923 39.646C107.141 39.114 107.441 38.6604 107.822 38.2852C108.202 37.91 108.653 37.6188 109.174 37.4116C109.695 37.2044 110.258 37.1008 110.862 37.1008C111.422 37.1008 111.94 37.1932 112.416 37.378C112.892 37.5628 113.304 37.8372 113.651 38.2012C113.998 38.5652 114.27 39.0188 114.466 39.562C114.662 40.1052 114.76 40.7408 114.76 41.4688ZM121.614 44.3752H121.564C121.362 44.7336 121.038 45.0276 120.59 45.2572C120.142 45.4868 119.632 45.6016 119.061 45.6016C118.736 45.6016 118.397 45.5596 118.044 45.4756C117.692 45.3916 117.367 45.2516 117.07 45.0556C116.773 44.8596 116.527 44.602 116.331 44.2828C116.135 43.9636 116.037 43.5688 116.037 43.0984C116.037 42.4936 116.208 42.012 116.549 41.6536C116.891 41.2952 117.33 41.0208 117.868 40.8304C118.406 40.64 119.002 40.514 119.657 40.4524C120.312 40.3908 120.954 40.36 121.581 40.36V40.1584C121.581 39.6544 121.399 39.282 121.035 39.0412C120.671 38.8004 120.237 38.68 119.733 38.68C119.307 38.68 118.898 38.7696 118.506 38.9488C118.114 39.128 117.79 39.3464 117.532 39.604L116.49 38.3776C116.95 37.952 117.479 37.6328 118.078 37.42C118.677 37.2072 119.285 37.1008 119.901 37.1008C120.618 37.1008 121.208 37.2016 121.673 37.4032C122.138 37.6048 122.505 37.868 122.774 38.1928C123.042 38.5176 123.23 38.8816 123.336 39.2848C123.443 39.688 123.496 40.0912 123.496 40.4944V45.4H121.614V44.3752ZM121.581 41.7208H121.127C120.802 41.7208 120.461 41.7348 120.102 41.7628C119.744 41.7908 119.414 41.8524 119.111 41.9476C118.809 42.0428 118.557 42.1772 118.355 42.3508C118.154 42.5244 118.053 42.7624 118.053 43.0648C118.053 43.2552 118.095 43.4148 118.179 43.5436C118.263 43.6724 118.372 43.776 118.506 43.8544C118.641 43.9328 118.792 43.9888 118.96 44.0224C119.128 44.056 119.296 44.0728 119.464 44.0728C120.158 44.0728 120.685 43.888 121.043 43.5184C121.402 43.1488 121.581 42.6448 121.581 42.0064V41.7208ZM125.248 37.336H127.18V38.68H127.214C127.438 38.2096 127.751 37.8288 128.154 37.5376C128.558 37.2464 129.028 37.1008 129.566 37.1008C129.644 37.1008 129.728 37.1036 129.818 37.1092C129.907 37.1148 129.986 37.1288 130.053 37.1512V38.9992C129.918 38.9656 129.804 38.9432 129.708 38.932C129.613 38.9208 129.521 38.9152 129.431 38.9152C128.972 38.9152 128.602 38.9992 128.322 39.1672C128.042 39.3352 127.824 39.5368 127.667 39.772C127.51 40.0072 127.404 40.248 127.348 40.4944C127.292 40.7408 127.264 40.9368 127.264 41.0824V45.4H125.248V37.336ZM133.413 32.6992V38.3608H133.463C133.564 38.2264 133.693 38.0864 133.85 37.9408C134.006 37.7952 134.194 37.6608 134.412 37.5376C134.631 37.4144 134.886 37.3108 135.177 37.2268C135.468 37.1428 135.798 37.1008 136.168 37.1008C136.739 37.1008 137.266 37.21 137.747 37.4284C138.229 37.6468 138.643 37.9464 138.99 38.3272C139.338 38.708 139.606 39.156 139.797 39.6712C139.987 40.1864 140.082 40.7408 140.082 41.3344C140.082 41.928 139.99 42.4852 139.805 43.006C139.62 43.5268 139.357 43.9804 139.016 44.3668C138.674 44.7532 138.26 45.0612 137.772 45.2908C137.285 45.5204 136.734 45.6352 136.118 45.6352C135.546 45.6352 135.012 45.512 134.513 45.2656C134.015 45.0192 133.626 44.6608 133.346 44.1904H133.312V45.4H131.397V32.6992H133.413ZM138.033 41.3344C138.033 41.0208 137.985 40.71 137.89 40.402C137.795 40.094 137.652 39.8168 137.462 39.5704C137.271 39.324 137.03 39.1252 136.739 38.974C136.448 38.8228 136.106 38.7472 135.714 38.7472C135.345 38.7472 135.014 38.8256 134.723 38.9824C134.432 39.1392 134.183 39.3408 133.976 39.5872C133.768 39.8336 133.612 40.1136 133.505 40.4272C133.399 40.7408 133.346 41.0544 133.346 41.368C133.346 41.6816 133.399 41.9924 133.505 42.3004C133.612 42.6084 133.768 42.8856 133.976 43.132C134.183 43.3784 134.432 43.5772 134.723 43.7284C135.014 43.8796 135.345 43.9552 135.714 43.9552C136.106 43.9552 136.448 43.8768 136.739 43.72C137.03 43.5632 137.271 43.3616 137.462 43.1152C137.652 42.8688 137.795 42.5888 137.89 42.2752C137.985 41.9616 138.033 41.648 138.033 41.3344ZM141.465 37.336H143.481V45.4H141.465V37.336ZM141.179 34.5976C141.179 34.2728 141.3 33.99 141.54 33.7492C141.781 33.5084 142.086 33.388 142.456 33.388C142.826 33.388 143.136 33.5028 143.388 33.7324C143.64 33.962 143.766 34.2504 143.766 34.5976C143.766 34.9448 143.64 35.2332 143.388 35.4628C143.136 35.6924 142.826 35.8072 142.456 35.8072C142.086 35.8072 141.781 35.6868 141.54 35.446C141.3 35.2052 141.179 34.9224 141.179 34.5976ZM144.774 38.9488V37.336H146.186V35.0008H148.168V37.336H150.184V38.9488H148.168V42.6952C148.168 43.0536 148.232 43.3504 148.361 43.5856C148.49 43.8208 148.778 43.9384 149.226 43.9384C149.361 43.9384 149.506 43.9244 149.663 43.8964C149.82 43.8684 149.96 43.8264 150.083 43.7704L150.15 45.3496C149.971 45.4168 149.758 45.47 149.512 45.5092C149.266 45.5484 149.03 45.568 148.806 45.568C148.269 45.568 147.832 45.4924 147.496 45.3412C147.16 45.19 146.894 44.9828 146.698 44.7196C146.502 44.4564 146.368 44.154 146.295 43.8124C146.222 43.4708 146.186 43.104 146.186 42.712V38.9488H144.774Z" fill="#6C6F93"/>
</g>
</g>
<defs>
<linearGradient id="paint0_linear_27_87" x1="814" y1="40" x2="1564" y2="1540" gradientUnits="userSpaceOnUse">
<stop stop-color="#DEF2FE"/>
<stop offset="1" stop-color="#DBF1FE"/>
</linearGradient>
<linearGradient id="paint1_linear_27_87" x1="64" y1="25" x2="814" y2="1525" gradientUnits="userSpaceOnUse">
<stop stop-color="#57BCFD"/>
<stop offset="1" stop-color="#51B5FD"/>
</linearGradient>
<linearGradient id="paint2_linear_27_87" x1="611.5" y1="25" x2="1886.5" y2="2575" gradientUnits="userSpaceOnUse">
<stop stop-color="#1CA7FD"/>
<stop offset="1" stop-color="#148CFC"/>
</linearGradient>
<clipPath id="clip0_27_87">
<rect width="200" height="80" fill="white"/>
</clipPath>
<clipPath id="clip1_27_87">
<rect width="102" height="30" fill="white" transform="translate(49 25)"/>
</clipPath>
</defs>
</svg>
