<svg width="200" height="80" viewBox="0 0 200 80" fill="none" xmlns="http://www.w3.org/2000/svg">
<g clip-path="url(#clip0_27_26)">
<g clip-path="url(#clip1_27_26)">
<path d="M73.377 34.446H60.857V38.161H69.737C69.297 43.361 64.964 45.593 60.872 45.593C59.5757 45.5987 58.2912 45.3461 57.0936 44.8499C55.8959 44.3538 54.8092 43.624 53.8967 42.7032C52.9842 41.7824 52.2642 40.6891 51.7789 39.487C51.2936 38.2849 51.0526 36.9982 51.07 35.702C51.07 30.078 55.424 25.748 60.884 25.748C65.096 25.748 67.578 28.433 67.578 28.433L70.178 25.739C70.178 25.739 66.838 22.022 60.748 22.022C52.993 22.022 46.994 28.567 46.994 35.636C46.994 42.563 52.637 49.318 60.944 49.318C68.251 49.318 73.6 44.312 73.6 36.91C73.6 35.348 73.373 34.446 73.373 34.446H73.377Z" fill="#4885ED"/>
<path d="M83.634 31.755C78.496 31.755 74.814 35.772 74.814 40.455C74.814 45.209 78.384 49.3 83.694 49.3C88.5 49.3 92.437 45.627 92.437 40.557C92.437 34.757 87.857 31.754 83.634 31.754V31.755ZM83.684 35.201C86.21 35.201 88.604 37.244 88.604 40.535C88.604 43.755 86.22 45.857 83.672 45.857C80.872 45.857 78.672 43.615 78.672 40.509C78.672 37.469 80.852 35.201 83.692 35.201H83.684Z" fill="#DB3236"/>
<path d="M102.815 31.755C97.677 31.755 93.995 35.772 93.995 40.455C93.995 45.209 97.565 49.3 102.875 49.3C107.681 49.3 111.618 45.627 111.618 40.557C111.618 34.757 107.038 31.754 102.815 31.754V31.755ZM102.865 35.201C105.391 35.201 107.785 37.244 107.785 40.535C107.785 43.755 105.401 45.857 102.853 45.857C100.053 45.857 97.853 43.615 97.853 40.509C97.853 37.469 100.033 35.201 102.873 35.201H102.865Z" fill="#F4C20D"/>
<path d="M121.628 31.765C116.912 31.765 113.206 35.895 113.206 40.531C113.206 45.811 117.503 49.313 121.546 49.313C124.046 49.313 125.376 48.32 126.346 47.181V48.911C126.346 51.938 124.508 53.751 121.734 53.751C119.054 53.751 117.71 51.758 117.234 50.628L113.862 52.028C115.058 54.558 117.466 57.195 121.762 57.195C126.462 57.195 130.024 54.242 130.024 48.048V32.292H126.36V33.778C125.23 32.558 123.682 31.765 121.63 31.765H121.628ZM121.968 35.205C124.28 35.205 126.654 37.179 126.654 40.55C126.654 43.977 124.284 45.865 121.917 45.865C119.403 45.865 117.064 43.825 117.064 40.582C117.064 37.214 119.494 35.205 121.968 35.205Z" fill="#4885ED"/>
<path d="M146.4 31.744C141.952 31.744 138.217 35.284 138.217 40.504C138.217 46.03 142.38 49.307 146.817 49.307C150.529 49.307 152.817 47.277 154.167 45.457L151.134 43.439C150.347 44.659 149.031 45.854 146.836 45.854C144.37 45.854 143.236 44.504 142.533 43.194L154.296 38.314L153.696 36.884C152.56 34.084 149.908 31.744 146.4 31.744ZM146.553 35.118C148.156 35.118 149.309 35.97 149.799 36.992L141.943 40.275C141.603 37.733 144.013 35.118 146.543 35.118H146.553Z" fill="#DB3236"/>
<path d="M132.6 48.787H136.464V22.93H132.6V48.787Z" fill="#3CBA54"/>
</g>
</g>
<defs>
<clipPath id="clip0_27_26">
<rect width="200" height="80" fill="white"/>
</clipPath>
<clipPath id="clip1_27_26">
<rect width="109" height="36" fill="white" transform="translate(46 22)"/>
</clipPath>
</defs>
</svg>
