<svg width="14" height="14" viewBox="0 0 14 14" fill="none" xmlns="http://www.w3.org/2000/svg">
<path d="M11.9583 4.66667V9.45C11.9583 10.4301 11.9583 10.9201 11.7676 11.2945C11.5998 11.6238 11.3321 11.8915 11.0028 12.0593C10.6284 12.25 10.1384 12.25 9.15829 12.25H4.84163C3.86153 12.25 3.37149 12.25 2.99714 12.0593C2.66786 11.8915 2.40014 11.6238 2.23236 11.2945C2.04163 10.9201 2.04163 10.4301 2.04163 9.45V4.66667M2.09996 1.75H11.9C12.2267 1.75 12.39 1.75 12.5148 1.81358C12.6245 1.86951 12.7138 1.95874 12.7697 2.06851C12.8333 2.19329 12.8333 2.35664 12.8333 2.68333V3.73333C12.8333 4.06003 12.8333 4.22338 12.7697 4.34816C12.7138 4.45792 12.6245 4.54716 12.5148 4.60309C12.39 4.66667 12.2267 4.66667 11.9 4.66667H2.09996C1.77326 4.66667 1.60991 4.66667 1.48513 4.60309C1.37537 4.54716 1.28613 4.45792 1.23021 4.34816C1.16663 4.22338 1.16663 4.06003 1.16663 3.73333V2.68333C1.16663 2.35664 1.16663 2.19329 1.23021 2.06851C1.28613 1.95874 1.37537 1.86951 1.48513 1.81358C1.60991 1.75 1.77326 1.75 2.09996 1.75ZM5.59996 6.70833H8.39996C8.72666 6.70833 8.89001 6.70833 9.01479 6.77191C9.12455 6.82784 9.21379 6.91708 9.26971 7.02684C9.33329 7.15162 9.33329 7.31497 9.33329 7.64167V8.10833C9.33329 8.43503 9.33329 8.59838 9.26971 8.72316C9.21379 8.83292 9.12455 8.92216 9.01479 8.97809C8.89001 9.04167 8.72666 9.04167 8.39996 9.04167H5.59996C5.27326 9.04167 5.10991 9.04167 4.98513 8.97809C4.87537 8.92216 4.78613 8.83292 4.73021 8.72316C4.66663 8.59838 4.66663 8.43503 4.66663 8.10833V7.64167C4.66663 7.31497 4.66663 7.15162 4.73021 7.02684C4.78613 6.91708 4.87537 6.82784 4.98513 6.77191C5.10991 6.70833 5.27326 6.70833 5.59996 6.70833Z" stroke="#64748B" stroke-width="1.16667" stroke-linecap="round" stroke-linejoin="round"/>
</svg>
