<svg width="212" height="58" viewBox="0 0 212 58" fill="none" xmlns="http://www.w3.org/2000/svg">
<circle cx="29" cy="29" r="29" fill="#1C5FD9"/>
<mask id="mask0_1_256" style="mask-type:alpha" maskUnits="userSpaceOnUse" x="12" y="12" width="34" height="34">
<ellipse cx="28.9998" cy="28.9998" rx="16.5714" ry="16.5714" fill="#C4C4C4"/>
</mask>
<g mask="url(#mask0_1_256)">
<ellipse cx="21.1165" cy="9.48622" rx="13.7486" ry="13.7486" transform="rotate(-22 21.1165 9.48622)" fill="white"/>
<ellipse cx="36.8852" cy="48.5144" rx="13.7486" ry="13.7486" transform="rotate(-22 36.8852 48.5144)" fill="white"/>
<ellipse cx="9.4867" cy="36.8847" rx="13.7486" ry="13.7486" transform="rotate(-22 9.4867 36.8847)" fill="white" fill-opacity="0.35"/>
<ellipse cx="48.1531" cy="20.2224" rx="13.7486" ry="13.7486" transform="rotate(-22 48.1531 20.2224)" fill="white" fill-opacity="0.35"/>
</g>
<path d="M71.6803 18.4091H76.3557L82.6171 33.6918H82.8642L89.1256 18.4091H93.801V39.5H90.1348V25.0103H89.9391L84.1103 39.4382H81.371L75.5421 24.9794H75.3465V39.5H71.6803V18.4091ZM104.8 39.8089C103.214 39.8089 101.844 39.4794 100.691 38.8203C99.544 38.1544 98.6618 37.2138 98.0439 35.9986C97.426 34.7765 97.117 33.3382 97.117 31.6836C97.117 30.0565 97.426 28.6284 98.0439 27.3995C98.6687 26.1637 99.5406 25.2025 100.66 24.516C101.779 23.8226 103.093 23.4759 104.604 23.4759C105.579 23.4759 106.499 23.6338 107.364 23.9496C108.236 24.2585 109.005 24.7391 109.671 25.3913C110.343 26.0436 110.872 26.8743 111.257 27.8835C111.641 28.8859 111.833 30.0805 111.833 31.4673V32.6104H98.8678V30.0977H108.26C108.253 29.3836 108.098 28.7486 107.796 28.1925C107.494 27.6295 107.072 27.1867 106.53 26.864C105.994 26.5413 105.369 26.38 104.655 26.38C103.893 26.38 103.224 26.5653 102.647 26.9361C102.071 27.3 101.621 27.7805 101.298 28.3778C100.982 28.9683 100.821 29.6171 100.814 30.3242V32.5178C100.814 33.4377 100.982 34.2273 101.319 34.8864C101.655 35.5386 102.125 36.0398 102.73 36.3899C103.334 36.7332 104.041 36.9048 104.851 36.9048C105.393 36.9048 105.884 36.8293 106.324 36.6783C106.763 36.5204 107.144 36.2904 107.467 35.9883C107.79 35.6862 108.033 35.312 108.198 34.8658L111.679 35.2571C111.459 36.1771 111.04 36.9804 110.422 37.6669C109.811 38.3466 109.029 38.8752 108.074 39.2528C107.12 39.6236 106.029 39.8089 104.8 39.8089ZM120.857 39.7781C119.615 39.7781 118.502 39.4588 117.521 38.8203C116.539 38.1818 115.763 37.255 115.193 36.0398C114.623 34.8246 114.338 33.3485 114.338 31.6115C114.338 29.8539 114.627 28.371 115.203 27.1626C115.787 25.9474 116.573 25.0309 117.562 24.413C118.55 23.7882 119.652 23.4759 120.867 23.4759C121.794 23.4759 122.556 23.6338 123.154 23.9496C123.751 24.2585 124.225 24.6327 124.575 25.0721C124.925 25.5046 125.196 25.9131 125.388 26.2976H125.543V18.4091H129.281V39.5H125.615V37.0078H125.388C125.196 37.3923 124.918 37.8008 124.554 38.2333C124.19 38.659 123.71 39.0228 123.113 39.3249C122.515 39.627 121.763 39.7781 120.857 39.7781ZM121.897 36.7195C122.687 36.7195 123.36 36.5066 123.916 36.081C124.472 35.6484 124.894 35.0477 125.182 34.2788C125.471 33.5098 125.615 32.6139 125.615 31.5909C125.615 30.5679 125.471 29.6789 125.182 28.9237C124.901 28.1684 124.482 27.5814 123.926 27.1626C123.377 26.7438 122.701 26.5344 121.897 26.5344C121.067 26.5344 120.373 26.7507 119.817 27.1832C119.261 27.6158 118.842 28.2131 118.561 28.9751C118.279 29.7372 118.138 30.6091 118.138 31.5909C118.138 32.5795 118.279 33.4618 118.561 34.2376C118.849 35.0065 119.271 35.6141 119.827 36.0604C120.39 36.4998 121.08 36.7195 121.897 36.7195ZM140.154 39.8089C138.575 39.8089 137.219 39.4622 136.086 38.7688C134.96 38.0754 134.091 37.1177 133.48 35.8956C132.876 34.6667 132.574 33.2524 132.574 31.6527C132.574 30.0462 132.883 28.6284 133.501 27.3995C134.119 26.1637 134.991 25.2025 136.117 24.516C137.25 23.8226 138.588 23.4759 140.133 23.4759C141.417 23.4759 142.553 23.7127 143.542 24.1864C144.537 24.6533 145.33 25.3158 145.921 26.174C146.511 27.0253 146.848 28.0208 146.93 29.1605H143.367C143.223 28.3984 142.879 27.7634 142.337 27.2553C141.801 26.7404 141.084 26.483 140.185 26.483C139.422 26.483 138.753 26.6889 138.176 27.1009C137.6 27.5059 137.15 28.0895 136.827 28.8516C136.511 29.6136 136.354 30.5268 136.354 31.5909C136.354 32.6688 136.511 33.5956 136.827 34.3714C137.143 35.1404 137.586 35.7343 138.156 36.1531C138.732 36.565 139.409 36.771 140.185 36.771C140.734 36.771 141.225 36.668 141.657 36.462C142.097 36.2492 142.464 35.9437 142.759 35.5455C143.054 35.1473 143.257 34.6632 143.367 34.0934H146.93C146.841 35.2125 146.511 36.2045 145.941 37.0696C145.371 37.9278 144.596 38.6006 143.614 39.0881C142.632 39.5687 141.479 39.8089 140.154 39.8089ZM156.891 39.8089C155.346 39.8089 154.007 39.4691 152.875 38.7894C151.742 38.1097 150.863 37.1589 150.238 35.9368C149.62 34.7147 149.311 33.2867 149.311 31.6527C149.311 30.0187 149.62 28.5872 150.238 27.3583C150.863 26.1294 151.742 25.1751 152.875 24.4954C154.007 23.8157 155.346 23.4759 156.891 23.4759C158.436 23.4759 159.774 23.8157 160.907 24.4954C162.04 25.1751 162.915 26.1294 163.533 27.3583C164.158 28.5872 164.47 30.0187 164.47 31.6527C164.47 33.2867 164.158 34.7147 163.533 35.9368C162.915 37.1589 162.04 38.1097 160.907 38.7894C159.774 39.4691 158.436 39.8089 156.891 39.8089ZM156.912 36.8224C157.749 36.8224 158.449 36.5924 159.012 36.1325C159.575 35.6656 159.994 35.0408 160.269 34.2582C160.55 33.4755 160.691 32.6036 160.691 31.6424C160.691 30.6744 160.55 29.799 160.269 29.0163C159.994 28.2268 159.575 27.5986 159.012 27.1317C158.449 26.6649 157.749 26.4315 156.912 26.4315C156.053 26.4315 155.339 26.6649 154.769 27.1317C154.207 27.5986 153.784 28.2268 153.503 29.0163C153.228 29.799 153.091 30.6744 153.091 31.6424C153.091 32.6036 153.228 33.4755 153.503 34.2582C153.784 35.0408 154.207 35.6656 154.769 36.1325C155.339 36.5924 156.053 36.8224 156.912 36.8224ZM171.363 30.2315V39.5H167.635V23.6818H171.198V26.3697H171.383C171.747 25.484 172.327 24.7803 173.124 24.2585C173.927 23.7367 174.919 23.4759 176.1 23.4759C177.191 23.4759 178.142 23.7093 178.952 24.1761C179.769 24.643 180.401 25.3192 180.847 26.2049C181.3 27.0906 181.524 28.165 181.517 29.4283V39.5H177.789V30.005C177.789 28.9477 177.514 28.1204 176.965 27.5231C176.423 26.9258 175.671 26.6271 174.71 26.6271C174.057 26.6271 173.477 26.7713 172.969 27.0597C172.468 27.3411 172.073 27.7496 171.785 28.2852C171.503 28.8207 171.363 29.4695 171.363 30.2315ZM192.309 39.8089C190.723 39.8089 189.354 39.4794 188.2 38.8203C187.054 38.1544 186.172 37.2138 185.554 35.9986C184.936 34.7765 184.627 33.3382 184.627 31.6836C184.627 30.0565 184.936 28.6284 185.554 27.3995C186.178 26.1637 187.05 25.2025 188.169 24.516C189.288 23.8226 190.603 23.4759 192.114 23.4759C193.089 23.4759 194.009 23.6338 194.874 23.9496C195.746 24.2585 196.514 24.7391 197.18 25.3913C197.853 26.0436 198.382 26.8743 198.766 27.8835C199.151 28.8859 199.343 30.0805 199.343 31.4673V32.6104H186.378V30.0977H195.77C195.763 29.3836 195.608 28.7486 195.306 28.1925C195.004 27.6295 194.582 27.1867 194.039 26.864C193.504 26.5413 192.879 26.38 192.165 26.38C191.403 26.38 190.734 26.5653 190.157 26.9361C189.58 27.3 189.131 27.7805 188.808 28.3778C188.492 28.9683 188.331 29.6171 188.324 30.3242V32.5178C188.324 33.4377 188.492 34.2273 188.829 34.8864C189.165 35.5386 189.635 36.0398 190.239 36.3899C190.844 36.7332 191.551 36.9048 192.361 36.9048C192.903 36.9048 193.394 36.8293 193.833 36.6783C194.273 36.5204 194.654 36.2904 194.977 35.9883C195.299 35.6862 195.543 35.312 195.708 34.8658L199.189 35.2571C198.969 36.1771 198.55 36.9804 197.932 37.6669C197.321 38.3466 196.538 38.8752 195.584 39.2528C194.63 39.6236 193.538 39.8089 192.309 39.8089ZM210.396 23.6818V26.5653H201.302V23.6818H210.396ZM203.547 19.892H207.275V34.7422C207.275 35.2434 207.351 35.6278 207.502 35.8956C207.66 36.1565 207.866 36.335 208.12 36.4311C208.374 36.5272 208.655 36.5753 208.964 36.5753C209.198 36.5753 209.411 36.5581 209.603 36.5238C209.802 36.4895 209.953 36.4586 210.056 36.4311L210.684 39.3455C210.485 39.4142 210.2 39.4897 209.829 39.5721C209.465 39.6545 209.019 39.7025 208.491 39.7163C207.557 39.7437 206.716 39.603 205.967 39.294C205.219 38.9782 204.625 38.4908 204.186 37.8317C203.753 37.1726 203.54 36.3487 203.547 35.3601V19.892Z" fill="white"/>
</svg>
