<svg width="146" height="40" viewBox="0 0 146 40" fill="none" xmlns="http://www.w3.org/2000/svg">
<circle cx="20" cy="20" r="20" fill="#1C5FD9"/>
<mask id="mask0_0_141" style="mask-type:alpha" maskUnits="userSpaceOnUse" x="8" y="8" width="24" height="24">
<ellipse cx="19.9999" cy="20.0008" rx="11.4286" ry="11.4286" fill="#C4C4C4"/>
</mask>
<g mask="url(#mask0_0_141)">
<ellipse cx="14.5629" cy="6.54413" rx="9.48181" ry="9.48182" transform="rotate(-22 14.5629 6.54413)" fill="white"/>
<ellipse cx="25.4379" cy="33.4601" rx="9.48181" ry="9.48182" transform="rotate(-22 25.4379 33.4601)" fill="white"/>
<ellipse cx="6.54255" cy="25.4406" rx="9.48181" ry="9.48182" transform="rotate(-22 6.54255 25.4406)" fill="white" fill-opacity="0.35"/>
<ellipse cx="33.209" cy="13.9484" rx="9.48181" ry="9.48182" transform="rotate(-22 33.209 13.9484)" fill="white" fill-opacity="0.35"/>
</g>
<path d="M49.4347 12.4545H52.6591L56.9773 22.9943H57.1477L61.4659 12.4545H64.6903V27H62.1619V17.0071H62.027L58.0071 26.9574H56.1179L52.098 16.9858H51.9631V27H49.4347V12.4545ZM72.2756 27.2131C71.1818 27.2131 70.2372 26.9858 69.4418 26.5312C68.651 26.072 68.0426 25.4233 67.6165 24.5852C67.1903 23.7424 66.9773 22.7505 66.9773 21.6094C66.9773 20.4872 67.1903 19.5024 67.6165 18.6548C68.0473 17.8026 68.6487 17.1397 69.4205 16.6662C70.1922 16.188 71.099 15.9489 72.1406 15.9489C72.813 15.9489 73.4474 16.0578 74.044 16.2756C74.6454 16.4886 75.1757 16.8201 75.6349 17.2699C76.099 17.7197 76.4635 18.2926 76.7287 18.9886C76.9938 19.6799 77.1264 20.5038 77.1264 21.4602V22.2486H68.1847V20.5156H74.6619C74.6572 20.0232 74.5507 19.5852 74.3423 19.2017C74.134 18.8134 73.8428 18.508 73.4688 18.2855C73.0994 18.063 72.6686 17.9517 72.1761 17.9517C71.6506 17.9517 71.1889 18.0795 70.7912 18.3352C70.3935 18.5862 70.0833 18.9176 69.8608 19.3295C69.643 19.7367 69.5317 20.1842 69.527 20.6719V22.1847C69.527 22.8191 69.643 23.3636 69.875 23.8182C70.107 24.268 70.4313 24.6136 70.848 24.8551C71.2647 25.0919 71.7524 25.2102 72.3111 25.2102C72.6851 25.2102 73.0237 25.1581 73.3267 25.054C73.6297 24.9451 73.8925 24.7865 74.1151 24.5781C74.3376 24.3698 74.5057 24.1117 74.6193 23.804L77.0199 24.0739C76.8684 24.7083 76.5795 25.2623 76.1534 25.7358C75.732 26.2045 75.1922 26.5691 74.5341 26.8295C73.8759 27.0852 73.1231 27.2131 72.2756 27.2131ZM83.3498 27.1918C82.4928 27.1918 81.7257 26.9716 81.0487 26.5312C80.3716 26.0909 79.8365 25.4517 79.4435 24.6136C79.0505 23.7756 78.854 22.7576 78.854 21.5597C78.854 20.3475 79.0529 19.3248 79.4506 18.4915C79.8531 17.6534 80.3952 17.0213 81.0771 16.5952C81.7589 16.1643 82.5188 15.9489 83.3569 15.9489C83.9961 15.9489 84.5217 16.0578 84.9336 16.2756C85.3455 16.4886 85.6722 16.7467 85.9137 17.0497C86.1552 17.348 86.3422 17.6297 86.4748 17.8949H86.5813V12.4545H89.1594V27H86.631V25.2812H86.4748C86.3422 25.5464 86.1505 25.8281 85.8995 26.1264C85.6486 26.42 85.3171 26.6709 84.9052 26.8793C84.4933 27.0876 83.9748 27.1918 83.3498 27.1918ZM84.0671 25.0824C84.6116 25.0824 85.0756 24.9356 85.4592 24.642C85.8427 24.3437 86.1339 23.9295 86.3327 23.3991C86.5316 22.8688 86.631 22.2509 86.631 21.5455C86.631 20.84 86.5316 20.2268 86.3327 19.706C86.1386 19.1851 85.8498 18.7803 85.4663 18.4915C85.0875 18.2027 84.6211 18.0582 84.0671 18.0582C83.4942 18.0582 83.016 18.2074 82.6325 18.5057C82.2489 18.804 81.9601 19.2159 81.766 19.7415C81.5719 20.267 81.4748 20.8684 81.4748 21.5455C81.4748 22.2273 81.5719 22.8357 81.766 23.3707C81.9648 23.901 82.256 24.3201 82.6396 24.6278C83.0278 24.9309 83.5037 25.0824 84.0671 25.0824ZM96.6577 27.2131C95.5687 27.2131 94.6335 26.974 93.8523 26.4957C93.0758 26.0175 92.4768 25.357 92.0554 24.5142C91.6387 23.6667 91.4304 22.6913 91.4304 21.5881C91.4304 20.4801 91.6435 19.5024 92.0696 18.6548C92.4957 17.8026 93.0971 17.1397 93.8736 16.6662C94.6548 16.188 95.5781 15.9489 96.6435 15.9489C97.5289 15.9489 98.3125 16.1122 98.9943 16.4389C99.6809 16.7609 100.228 17.2178 100.635 17.8097C101.042 18.3968 101.274 19.0833 101.331 19.8693H98.8736C98.7741 19.3437 98.5374 18.9058 98.1634 18.5554C97.794 18.2003 97.2992 18.0227 96.679 18.0227C96.1534 18.0227 95.6918 18.1648 95.294 18.4489C94.8963 18.7282 94.5862 19.1307 94.3636 19.6562C94.1458 20.1818 94.0369 20.8116 94.0369 21.5455C94.0369 22.2888 94.1458 22.928 94.3636 23.4631C94.5814 23.9934 94.8868 24.4029 95.2798 24.6918C95.6776 24.9759 96.1439 25.1179 96.679 25.1179C97.0578 25.1179 97.3963 25.0469 97.6946 24.9048C97.9976 24.758 98.2509 24.5473 98.4545 24.2727C98.6581 23.9981 98.7978 23.6643 98.8736 23.2713H101.331C101.269 24.0431 101.042 24.7273 100.649 25.3239C100.256 25.9157 99.7211 26.3797 99.044 26.7159C98.367 27.0473 97.5715 27.2131 96.6577 27.2131ZM108.201 27.2131C107.135 27.2131 106.212 26.9787 105.431 26.5099C104.65 26.0412 104.043 25.3854 103.613 24.5426C103.186 23.6998 102.973 22.715 102.973 21.5881C102.973 20.4612 103.186 19.474 103.613 18.6264C104.043 17.7789 104.65 17.1207 105.431 16.652C106.212 16.1832 107.135 15.9489 108.201 15.9489C109.266 15.9489 110.189 16.1832 110.971 16.652C111.752 17.1207 112.355 17.7789 112.782 18.6264C113.212 19.474 113.428 20.4612 113.428 21.5881C113.428 22.715 113.212 23.6998 112.782 24.5426C112.355 25.3854 111.752 26.0412 110.971 26.5099C110.189 26.9787 109.266 27.2131 108.201 27.2131ZM108.215 25.1534C108.792 25.1534 109.275 24.9948 109.664 24.6776C110.052 24.3556 110.341 23.9247 110.53 23.3849C110.724 22.8452 110.821 22.2438 110.821 21.581C110.821 20.9134 110.724 20.3097 110.53 19.7699C110.341 19.2254 110.052 18.7921 109.664 18.4702C109.275 18.1482 108.792 17.9872 108.215 17.9872C107.623 17.9872 107.131 18.1482 106.738 18.4702C106.349 18.7921 106.058 19.2254 105.864 19.7699C105.675 20.3097 105.58 20.9134 105.58 21.581C105.58 22.2438 105.675 22.8452 105.864 23.3849C106.058 23.9247 106.349 24.3556 106.738 24.6776C107.131 24.9948 107.623 25.1534 108.215 25.1534ZM118.181 20.608V27H115.61V16.0909H118.067V17.9446H118.195C118.446 17.3338 118.846 16.8485 119.396 16.4886C119.95 16.1288 120.634 15.9489 121.448 15.9489C122.201 15.9489 122.857 16.1098 123.415 16.4318C123.979 16.7538 124.415 17.2202 124.722 17.831C125.035 18.4418 125.189 19.1828 125.184 20.054V27H122.613V20.4517C122.613 19.7225 122.424 19.152 122.045 18.7401C121.671 18.3281 121.152 18.1222 120.489 18.1222C120.04 18.1222 119.639 18.2216 119.289 18.4205C118.943 18.6146 118.671 18.8963 118.472 19.2656C118.278 19.6349 118.181 20.0824 118.181 20.608ZM132.627 27.2131C131.533 27.2131 130.589 26.9858 129.793 26.5312C129.003 26.072 128.394 25.4233 127.968 24.5852C127.542 23.7424 127.329 22.7505 127.329 21.6094C127.329 20.4872 127.542 19.5024 127.968 18.6548C128.399 17.8026 129 17.1397 129.772 16.6662C130.544 16.188 131.451 15.9489 132.492 15.9489C133.165 15.9489 133.799 16.0578 134.396 16.2756C134.997 16.4886 135.527 16.8201 135.987 17.2699C136.451 17.7197 136.815 18.2926 137.08 18.9886C137.345 19.6799 137.478 20.5038 137.478 21.4602V22.2486H128.536V20.5156H135.013C135.009 20.0232 134.902 19.5852 134.694 19.2017C134.486 18.8134 134.194 18.508 133.82 18.2855C133.451 18.063 133.02 17.9517 132.528 17.9517C132.002 17.9517 131.54 18.0795 131.143 18.3352C130.745 18.5862 130.435 18.9176 130.212 19.3295C129.995 19.7367 129.883 20.1842 129.879 20.6719V22.1847C129.879 22.8191 129.995 23.3636 130.227 23.8182C130.459 24.268 130.783 24.6136 131.2 24.8551C131.616 25.0919 132.104 25.2102 132.663 25.2102C133.037 25.2102 133.375 25.1581 133.678 25.054C133.981 24.9451 134.244 24.7865 134.467 24.5781C134.689 24.3698 134.857 24.1117 134.971 23.804L137.371 24.0739C137.22 24.7083 136.931 25.2623 136.505 25.7358C136.084 26.2045 135.544 26.5691 134.886 26.8295C134.228 27.0852 133.475 27.2131 132.627 27.2131ZM145.1 16.0909V18.0795H138.829V16.0909H145.1ZM140.377 13.4773H142.949V23.7188C142.949 24.0644 143.001 24.3295 143.105 24.5142C143.214 24.6941 143.356 24.8172 143.531 24.8835C143.706 24.9498 143.9 24.983 144.113 24.983C144.274 24.983 144.421 24.9711 144.554 24.9474C144.691 24.9238 144.795 24.9025 144.866 24.8835L145.299 26.8935C145.162 26.9408 144.966 26.9929 144.71 27.0497C144.459 27.1065 144.151 27.1397 143.787 27.1491C143.143 27.1681 142.563 27.071 142.047 26.858C141.53 26.6402 141.121 26.304 140.818 25.8494C140.52 25.3949 140.373 24.8267 140.377 24.1449V13.4773Z" fill="black"/>
</svg>
