<svg width="200" height="80" viewBox="0 0 200 80" fill="none" xmlns="http://www.w3.org/2000/svg">
<g clip-path="url(#clip0_27_74)">
<g clip-path="url(#clip1_27_74)">
<path d="M170.521 38.5715V36.1002H167.452V32.2582L167.349 32.2899L164.467 33.1718L164.41 33.1891V36.1002H159.86V34.4787C159.86 33.7235 160.029 33.1457 160.362 32.7603C160.692 32.3795 161.165 32.186 161.768 32.186C162.201 32.186 162.65 32.2881 163.102 32.4894L163.215 32.5399V29.9373L163.162 29.9177C162.74 29.7663 162.167 29.69 161.457 29.69C160.562 29.69 159.749 29.8848 159.039 30.2708C158.33 30.6574 157.771 31.2093 157.38 31.911C156.99 32.6119 156.793 33.4214 156.793 34.3172V36.1002H154.656V38.5715H156.793V48.9825H159.86V38.5715H164.41V45.1876C164.41 47.9124 165.695 49.2933 168.23 49.2933C168.646 49.2933 169.085 49.2443 169.532 49.1487C169.988 49.0506 170.298 48.9526 170.481 48.8479L170.521 48.8241V46.3299L170.397 46.4125C170.23 46.5236 170.023 46.6142 169.78 46.6815C169.535 46.7501 169.332 46.7846 169.174 46.7846C168.58 46.7846 168.141 46.6245 167.868 46.3088C167.592 45.9902 167.452 45.4329 167.452 44.6535V38.5715H170.521ZM147.805 46.7848C146.692 46.7848 145.814 46.4156 145.195 45.6884C144.573 44.9574 144.257 43.9153 144.257 42.5913C144.257 41.2253 144.573 40.1562 145.196 39.4123C145.815 38.6733 146.684 38.2983 147.78 38.2983C148.844 38.2983 149.691 38.6565 150.297 39.3635C150.907 40.0741 151.216 41.1347 151.216 42.5167C151.216 43.9156 150.925 44.9902 150.351 45.7089C149.782 46.4224 148.925 46.7848 147.805 46.7848ZM147.942 35.7898C145.817 35.7898 144.13 36.4122 142.927 37.6399C141.725 38.8677 141.116 40.5667 141.116 42.6903C141.116 44.7073 141.711 46.3296 142.884 47.5116C144.058 48.694 145.655 49.293 147.631 49.293C149.69 49.293 151.344 48.6619 152.546 47.4173C153.749 46.1738 154.358 44.491 154.358 42.4169C154.358 40.3684 153.786 38.734 152.658 37.5598C151.53 36.3852 149.943 35.7898 147.942 35.7898ZM136.169 35.7897C134.724 35.7897 133.529 36.1593 132.616 36.8881C131.698 37.6211 131.232 38.5827 131.232 39.7461C131.232 40.3508 131.332 40.8881 131.53 41.3437C131.729 41.8009 132.038 42.2033 132.447 42.5411C132.853 42.8762 133.48 43.2272 134.312 43.5842C135.01 43.8717 135.531 44.115 135.862 44.3067C136.186 44.4945 136.415 44.6834 136.545 44.8673C136.671 45.0472 136.735 45.2934 136.735 45.5976C136.735 46.463 136.087 46.884 134.753 46.884C134.259 46.884 133.694 46.7809 133.076 46.5771C132.458 46.3737 131.88 46.0813 131.359 45.7063L131.232 45.6151V48.5684L131.278 48.5902C131.713 48.7905 132.26 48.9594 132.905 49.0924C133.548 49.2255 134.133 49.2933 134.642 49.2933C136.21 49.2933 137.472 48.9218 138.394 48.1888C139.321 47.4507 139.791 46.4665 139.791 45.2627C139.791 44.3944 139.538 43.6496 139.039 43.0491C138.544 42.4534 137.684 41.9066 136.485 41.4232C135.53 41.0399 134.919 40.7216 134.666 40.4774C134.423 40.2414 134.299 39.9077 134.299 39.4851C134.299 39.1104 134.452 38.8104 134.765 38.5672C135.08 38.3229 135.52 38.1987 136.07 38.1987C136.581 38.1987 137.105 38.2794 137.624 38.4376C138.144 38.5958 138.601 38.8076 138.982 39.0669L139.107 39.1526V36.351L139.059 36.3302C138.707 36.1795 138.244 36.0506 137.681 35.9459C137.12 35.8422 136.612 35.7897 136.169 35.7897ZM123.234 46.7848C122.121 46.7848 121.243 46.4156 120.625 45.6884C120.002 44.9574 119.687 43.9156 119.687 42.5913C119.687 41.2253 120.002 40.1562 120.625 39.4123C121.244 38.6733 122.113 38.2983 123.21 38.2983C124.273 38.2983 125.12 38.6565 125.726 39.3635C126.336 40.0741 126.645 41.1347 126.645 42.5167C126.645 43.9156 126.354 44.9902 125.781 45.7089C125.211 46.4224 124.355 46.7848 123.234 46.7848ZM123.371 35.7898C121.246 35.7898 119.559 36.4122 118.357 37.6399C117.155 38.8677 116.545 40.5667 116.545 42.6903C116.545 44.7081 117.14 46.3296 118.314 47.5116C119.487 48.694 121.084 49.293 123.06 49.293C125.119 49.293 126.773 48.6619 127.976 47.4173C129.178 46.1738 129.787 44.491 129.787 42.4169C129.787 40.3684 129.216 38.734 128.087 37.5598C126.959 36.3852 125.372 35.7898 123.371 35.7898ZM111.888 38.331V36.1002H108.858V48.9822H111.888V42.3926C111.888 41.272 112.142 40.3515 112.643 39.6562C113.138 38.9692 113.798 38.6211 114.603 38.6211C114.876 38.6211 115.182 38.6661 115.514 38.7551C115.843 38.8437 116.081 38.9397 116.221 39.0408L116.348 39.133V36.0781L116.299 36.057C116.017 35.9371 115.618 35.8766 115.112 35.8766C114.351 35.8766 113.67 36.1212 113.086 36.603C112.574 37.0264 112.203 37.607 111.92 38.331H111.888ZM103.431 35.7897C102.041 35.7897 100.801 36.0879 99.7461 36.6755C98.6892 37.2645 97.8719 38.1054 97.3157 39.1747C96.7621 40.2414 96.4811 41.4874 96.4811 42.8768C96.4811 44.094 96.7536 45.211 97.2923 46.1953C97.8313 47.1814 98.5942 47.9528 99.5598 48.4879C100.524 49.0223 101.639 49.2933 102.873 49.2933C104.313 49.2933 105.542 49.0053 106.528 48.4376L106.568 48.4146V45.6385L106.44 45.7315C105.994 46.0567 105.495 46.3163 104.958 46.5034C104.422 46.6903 103.934 46.7848 103.506 46.7848C102.317 46.7848 101.362 46.4127 100.67 45.6793C99.9751 44.9447 99.623 43.9135 99.623 42.6157C99.623 41.3097 99.9902 40.252 100.714 39.4713C101.435 38.6931 102.392 38.2984 103.556 38.2984C104.552 38.2984 105.523 38.6357 106.441 39.3018L106.568 39.394V36.4689L106.527 36.4458C106.181 36.2524 105.71 36.0927 105.125 35.9716C104.542 35.8507 103.973 35.7897 103.431 35.7897ZM94.3941 36.1002H91.3638V48.9822H94.3941V36.1002ZM92.9098 30.6124C92.4111 30.6124 91.9761 30.7821 91.6188 31.1186C91.2599 31.456 91.0778 31.8808 91.0778 32.3821C91.0778 32.8755 91.2577 33.2925 91.613 33.6209C91.9661 33.9484 92.4025 34.1144 92.9098 34.1144C93.417 34.1144 93.8551 33.9484 94.2124 33.6215C94.5721 33.2925 94.7545 32.8755 94.7545 32.3821C94.7545 31.8983 94.5771 31.4778 94.2272 31.1322C93.8779 30.7872 93.4345 30.6124 92.9098 30.6124ZM85.3492 35.1498V48.9821H88.4417V31.0069H84.1616L78.7212 44.3583L73.4417 31.0069H68.9873V48.9821H71.8934V35.1484H71.9933L77.5683 48.9821H79.7614L85.2495 35.1498H85.3492Z" fill="#6C6F93"/>
<path d="M44.2551 39.2551H30V25H44.2551V39.2551Z" fill="#F1511B"/>
<path d="M59.9944 39.2551H45.7395V25H59.9944V39.2551Z" fill="#80CC28"/>
<path d="M44.2547 55H30V40.7449H44.2547V55Z" fill="#00ADEF"/>
<path d="M59.9944 55H45.7395V40.7449H59.9944V55Z" fill="#FBBC09"/>
</g>
</g>
<defs>
<clipPath id="clip0_27_74">
<rect width="200" height="80" fill="white"/>
</clipPath>
<clipPath id="clip1_27_74">
<rect width="140.521" height="30" fill="white" transform="translate(30 25)"/>
</clipPath>
</defs>
</svg>
