<svg width="200" height="80" viewBox="0 0 200 80" fill="none" xmlns="http://www.w3.org/2000/svg">
<g clip-path="url(#clip0_27_69)">
<g clip-path="url(#clip1_27_69)">
<path d="M111.05 36.6729V36.683C110.99 36.683 110.928 36.6931 110.868 36.6931C110.807 36.6931 110.746 36.683 110.685 36.683C107.058 36.683 104.813 38.9487 104.813 42.5855V44.3735C104.813 47.8783 107.089 50.0525 110.735 50.0525C110.81 50.0544 110.885 50.0511 110.959 50.0424C111.01 50.0424 111.05 50.0525 111.101 50.0525C113.549 50.0525 115.256 49.1587 116.343 47.3095L114.179 46.0597C113.458 47.1263 112.493 47.929 111.111 47.929C109.262 47.929 108.155 46.7911 108.155 44.871V44.3631H116.729V42.25C116.729 38.8569 114.505 36.6729 111.05 36.6729ZM110.868 38.7558C112.554 38.8371 113.57 39.9545 113.57 41.7932V42.3012H108.145V42.0063C108.145 39.9746 109.11 38.8371 110.868 38.7558ZM97.5492 36.683C95.934 36.683 94.5423 37.3537 93.8108 38.471L93.628 38.7554V36.9876H90.5599V54.1465H93.7802V48.1529L93.9631 48.4272C94.6539 49.4531 96.0052 50.0626 97.5798 50.0626H97.6611H97.7321C100.384 50.0626 103.055 48.3354 103.055 44.465V42.2911C103.055 39.5074 101.41 36.6935 97.7115 36.6935L97.6914 36.6834H97.6205L97.5492 36.683ZM96.7976 39.101C98.6669 39.1316 99.8249 40.4012 99.8249 42.4333V44.3023C99.8249 46.334 98.6565 47.5939 96.767 47.6346C95.0096 47.604 93.7802 46.263 93.7802 44.353V42.4329C93.7802 40.5027 95.0196 39.1417 96.7976 39.101ZM138.531 32.4468L132.334 49.758H135.818L137.007 46.0499H143.773V46.0906L144.961 49.7681H148.446L142.239 32.4569H141.873L141.863 32.4468H138.531ZM140.38 35.4235L142.97 43.6017H137.769L140.38 35.4235ZM160.911 34.885V32.4468H150.285V34.885H154.013V47.2994H150.285V49.7375H160.911V47.2994H157.183V34.885H160.911ZM125.944 36.6834H125.852H125.801C124.003 36.6834 122.723 37.2928 122.093 38.4613L121.9 38.817V36.9883H118.832V49.748H122.053V42.1489C122.053 40.3609 123.018 39.335 124.684 39.3044C126.279 39.335 127.193 40.3407 127.193 42.078V49.748H130.413V41.529C130.413 38.4915 128.747 36.683 125.954 36.683L125.944 36.6834ZM80.2074 32.0912C75.4629 32.0912 72.5068 35.0477 72.5068 39.8123V42.3825C72.5068 47.1471 75.4528 50.1033 80.2074 50.1033H80.2787H80.3496C85.094 50.1033 88.0502 47.1471 88.0502 42.3825V39.8123C88.0502 35.0477 85.094 32.0912 80.3496 32.0912H80.2787H80.2074ZM80.2787 34.6718C83.103 34.7024 84.7283 36.5106 84.7283 39.6395V42.5654C84.7283 45.6943 83.103 47.5028 80.2787 47.533C77.4543 47.5024 75.8287 45.6943 75.8287 42.5654V39.6395C75.8287 36.5106 77.4543 34.7021 80.2787 34.6718ZM52.2294 25.0004C48.9479 25.0004 46.0325 27.1134 45.0162 30.2323C43.9734 30.4472 42.9882 30.8819 42.1264 31.5072C41.2646 32.1325 40.5458 32.9343 40.018 33.859C38.3722 36.7035 38.748 40.2795 40.9528 42.7177C40.2721 44.7598 40.5058 46.9945 41.5929 48.8437C43.2286 51.6983 46.5199 53.1613 49.7406 52.4805C50.4457 53.2764 51.3125 53.9128 52.283 54.3472C53.2535 54.7817 54.3055 55.0042 55.3688 55C58.6503 55 61.5657 52.887 62.5819 49.7681C64.695 49.3311 66.5136 48.0104 67.5701 46.1414C69.226 43.2969 68.8502 39.7209 66.6457 37.2827V37.2727C66.982 36.2633 67.0988 35.1937 66.9884 34.1355C66.8781 33.0773 66.543 32.0548 66.0057 31.1365C64.3696 28.292 61.078 26.8287 57.8677 27.5094C57.1593 26.7156 56.2903 26.0815 55.3182 25.6489C54.3462 25.2164 53.2933 24.9953 52.2294 25.0004ZM52.2294 26.9511L52.2193 26.9612C53.5401 26.9612 54.8101 27.4183 55.8259 28.2618C55.7853 28.2819 55.7039 28.3327 55.6431 28.3633L49.6696 31.8072C49.3647 31.98 49.1819 32.305 49.1819 32.6607V40.7471L46.6117 39.264V32.5793C46.6111 31.0882 47.2024 29.6579 48.2558 28.6025C49.3091 27.5471 50.7383 26.9534 52.2294 26.9511ZM59.4253 29.3053C60.4152 29.3034 61.3881 29.5629 62.2456 30.0575C63.103 30.5521 63.8147 31.2643 64.3087 32.1221C64.9589 33.26 65.2026 34.5908 64.979 35.881C64.9383 35.8504 64.8573 35.8101 64.8062 35.7795L58.8328 32.3252C58.6825 32.2402 58.5128 32.1955 58.3402 32.1955C58.1675 32.1955 57.9978 32.2402 57.8475 32.3252L50.8478 36.3684V33.4019L56.6283 30.0595C57.4782 29.5667 58.4429 29.3069 59.4253 29.3053ZM44.6509 32.3759V39.4772C44.6509 39.8328 44.8337 40.1478 45.1386 40.3307L52.1279 44.3638L49.5472 45.857L43.7768 42.5247C42.4873 41.7774 41.547 40.5489 41.1623 39.1089C40.7776 37.6689 40.98 36.1352 41.725 34.8443C42.3822 33.7051 43.4173 32.8321 44.6509 32.3759ZM58.0405 34.1333L63.821 37.4656C66.5132 39.02 67.4272 42.4538 65.8728 45.146L65.8829 45.1561C65.2227 46.294 64.1863 47.1677 62.957 47.6148V40.5132C62.957 40.1575 62.7742 39.8324 62.4693 39.66L55.4699 35.6164L58.0405 34.1333ZM53.7939 36.5819L56.7403 38.2885V41.6917L53.7939 43.3984L50.8478 41.6917V38.2885L53.7939 36.5819ZM58.4264 39.264L60.9966 40.7471V47.4218C60.9966 50.5306 58.4771 53.05 55.3788 53.05V53.0399C54.0682 53.0399 52.7881 52.5828 51.7823 51.7397C51.823 51.7196 51.9144 51.6684 51.9652 51.6378L57.9386 48.194C58.2435 48.0212 58.4365 47.6961 58.426 47.3405L58.4264 39.264ZM56.75 43.6323V46.5985L50.9695 49.9308C48.2773 51.4751 44.8435 50.5608 43.2891 47.8786H43.2992C42.639 46.7508 42.405 45.4099 42.6285 44.1198C42.6692 44.1504 42.7506 44.1907 42.8013 44.2213L48.7747 47.6756C48.925 47.7606 49.0947 47.8052 49.2674 47.8052C49.44 47.8052 49.6097 47.7606 49.76 47.6756L56.75 43.6323Z" fill="#6C6F93"/>
</g>
</g>
<defs>
<clipPath id="clip0_27_69">
<rect width="200" height="80" fill="white"/>
</clipPath>
<clipPath id="clip1_27_69">
<rect width="121.912" height="30" fill="white" transform="translate(39 25)"/>
</clipPath>
</defs>
</svg>
