<svg width="14" height="14" viewBox="0 0 14 14" fill="none" xmlns="http://www.w3.org/2000/svg">
<g clip-path="url(#clip0_89_4163)">
<path d="M5.24996 5.25033H5.25579M8.74996 8.75033H8.75579M9.33329 4.66699L4.66663 9.33366M5.54163 5.25033C5.54163 5.41141 5.41104 5.54199 5.24996 5.54199C5.08888 5.54199 4.95829 5.41141 4.95829 5.25033C4.95829 5.08924 5.08888 4.95866 5.24996 4.95866C5.41104 4.95866 5.54163 5.08924 5.54163 5.25033ZM9.04163 8.75033C9.04163 8.91141 8.91104 9.04199 8.74996 9.04199C8.58888 9.04199 8.45829 8.91141 8.45829 8.75033C8.45829 8.58924 8.58888 8.45866 8.74996 8.45866C8.91104 8.45866 9.04163 8.58924 9.04163 8.75033ZM12.8333 7.00033C12.8333 10.222 10.2216 12.8337 6.99996 12.8337C3.7783 12.8337 1.16663 10.222 1.16663 7.00033C1.16663 3.77866 3.7783 1.16699 6.99996 1.16699C10.2216 1.16699 12.8333 3.77866 12.8333 7.00033Z" stroke="#64748B" stroke-width="1.16667" stroke-linecap="round" stroke-linejoin="round"/>
</g>
<defs>
<clipPath id="clip0_89_4163">
<rect width="14" height="14" fill="white"/>
</clipPath>
</defs>
</svg>
